<?xml version="1.0" encoding="UTF-8" standalone="no"?>
<!-- Created with Inkscape (http://www.inkscape.org/) -->

<svg
   width="64.157402mm"
   height="36.807087mm"
   viewBox="0 0 64.157402 36.807087"
   version="1.1"
   id="svg1"
   sodipodi:docname="arrow-p.svg"
   inkscape:version="1.3.2 (091e20e, 2023-11-25, custom)"
   xmlns:inkscape="http://www.inkscape.org/namespaces/inkscape"
   xmlns:sodipodi="http://sodipodi.sourceforge.net/DTD/sodipodi-0.dtd"
   xmlns="http://www.w3.org/2000/svg"
   xmlns:svg="http://www.w3.org/2000/svg">
  <sodipodi:namedview
     id="namedview1"
     pagecolor="#ffffff"
     bordercolor="#000000"
     borderopacity="0.25"
     inkscape:showpageshadow="2"
     inkscape:pageopacity="0.0"
     inkscape:pagecheckerboard="0"
     inkscape:deskcolor="#d1d1d1"
     inkscape:document-units="mm"
     inkscape:zoom="0.17291529"
     inkscape:cx="-422.17205"
     inkscape:cy="159.03742"
     inkscape:window-width="1366"
     inkscape:window-height="745"
     inkscape:window-x="-8"
     inkscape:window-y="-8"
     inkscape:window-maximized="1"
     inkscape:current-layer="layer1" />
  <defs
     id="defs1" />
  <g
     inkscape:label="Layer 1"
     inkscape:groupmode="layer"
     id="layer1"
     transform="translate(-38.899514,-191.34778)">
    <path
       style="mix-blend-mode:normal;fill:#3fa08c;fill-opacity:1;stroke:#3fa08c;stroke-width:1.95800001;stroke-dasharray:none;stroke-dashoffset:0;stroke-opacity:1"
       id="path3"
       d="m 102.33148,214.32238 c -0.10309,-0.11379 -0.22562,-0.21261 -0.30927,-0.34137 -0.35088,-0.54014 -0.95392,-1.87525 -1.17333,-2.31624 -0.32349,-0.65015 -0.64706,-1.30047 -0.987937,-1.94168 -1.102686,-2.07419 -1.369047,-2.46406 -2.581754,-4.49966 -1.75205,-2.66802 -3.744024,-5.27365 -6.359549,-7.16087 -1.437515,-1.03723 -5.921478,-3.3119 -6.489742,-3.61586 -4.6042,-1.63243 -9.512639,-1.76776 -14.341446,-1.95756 -4.056827,-0.0703 -8.11675,-0.20255 -12.174537,-0.15043 0,0 2.952416,2.1318 2.952416,2.1318 v 0 c 3.955915,-0.18616 7.921009,-0.11522 11.878781,-0.0351 4.860581,0.19368 9.807824,0.4026 14.40066,2.17264 -0.399812,-0.2909 -1.673283,-1.01387 -1.199431,-0.87269 0.670396,0.19974 1.237234,0.65942 1.813682,1.0557 2.677239,1.84045 4.737185,4.42029 6.515283,7.09939 0.442253,0.74686 0.903414,1.48284 1.326755,2.24057 1.206133,2.15884 2.195627,4.4132 3.053512,6.7295 z" />
    <path
       style="mix-blend-mode:normal;fill:#3fa08c;fill-opacity:1;stroke:#3fa08c;stroke-width:1.95800001;stroke-dasharray:none;stroke-dashoffset:0;stroke-opacity:1"
       id="path5"
       d="m 62.081112,227.61485 c 1.975006,-3.00794 4.095448,-5.91798 6.850406,-8.27173 0.869022,-0.74247 1.816854,-1.38739 2.72528,-2.08109 0.94628,-0.58442 1.853851,-1.23674 2.838842,-1.75326 3.108721,-1.63018 6.576758,-2.62598 10.034388,-3.16086 2.744507,-0.42456 3.792308,-0.3553 6.517376,-0.40525 3.201175,0.0453 6.330743,0.65649 9.408646,1.48159 0,0 -2.792158,-2.13505 -2.792158,-2.13505 v 0 c -3.011511,-0.69609 -6.065226,-1.20483 -9.168992,-1.19006 -1.034971,0.0396 -2.072492,0.0361 -3.104912,0.11877 -4.549455,0.36441 -9.434071,1.4717 -13.491901,3.61709 -0.986303,0.52147 -1.8845,1.19481 -2.82675,1.79221 -0.933077,0.69112 -1.899541,1.3393 -2.79923,2.07335 -2.839324,2.3166 -5.127496,5.15063 -7.478327,7.93436 z" />
    <path
       style="mix-blend-mode:normal;fill:#3fa08c;fill-opacity:1;stroke:#3fa08c;stroke-width:1.95800001;stroke-dasharray:none;stroke-dashoffset:0;stroke-opacity:1"
       id="path7"
       d="m 99.781811,212.00832 c -2.230424,-1.30243 -1.215163,-2.2954 -5.733773,-4.69841 -0.807794,-0.42958 -2.241372,-0.96599 -3.088522,-1.31155 -2.443962,-0.9969 -5.628958,-1.98106 -8.131062,-2.63097 -1.72566,-0.44823 -3.474796,-0.80064 -5.212193,-1.20096 -6.680579,-1.32 -13.439579,-2.40268 -20.259863,-2.58318 -3.26834,-0.0865 -4.126688,0.0308 -7.241418,0.22661 -0.862256,0.10182 -3.347466,0.4065 -4.209721,0.50832 l -4.699131,1.70586 1.284833,0.74385 c 0,0 4.490219,-1.10988 5.298342,-1.24217 3.046441,-0.2918 8.581083,-0.32705 11.810071,-0.29664 6.7432,0.0635 13.433951,1.11755 20.024799,2.46914 4.559435,1.11973 5.728057,1.28239 10.054187,2.80677 11.86712,4.18155 -4.587892,-1.6527 4.310273,1.88633 0.390832,0.15545 3.608444,2.37833 3.19689,2.46514 -0.396756,0.0837 0.869524,0.86753 1.202851,1.09843 z"
       sodipodi:nodetypes="cscsccccccccccsccc" />
  </g>
</svg>
